<svg width="50" viewBox="-2 -2 28 28" fill="black"
    xmlns="http://www.w3.org/2000/svg">
    <path fill-rule="evenodd" clip-rule="evenodd" d="M12 0C5.376 0 0 5.376 0 12C0 18.624 5.376 24 12 24C18.624 24 24 18.624 24 12C24.0096 5.376 18.6336 0 12 0ZM3.0336 10.2528C3.0336 6.2592 6.2688 3.0336 10.2624 3.0336C14.016 3.0336 17.1072 5.8944 17.4528 9.5616C17.232 9.5424 17.0016 9.5328 16.7712 9.5328C12.7776 9.5328 9.5328 12.768 9.5328 16.7712C9.5328 17.0016 9.5424 17.232 9.5616 17.4528C5.904 17.0976 3.0336 14.016 3.0336 10.2528Z" />
</svg>
